# xmcd
#
# Track frame offsets: 
#        150
#        16270
#        32857
#        51177
#        67907
#        81275
#        98427
#        116232
#        131650
#        149302
#        166157
#        182462
#        198855
#        215337
#        232072
#        250097
#
# Disc length: 3548 seconds
#
# Revision: 2
# Processed by: cddbd v1.5.2PL0 Copyright (c) Steve Scherf et al.
# Submitted via: ExactAudioCopy v0.99pb3
#
DISCID=d50dda10
DTITLE=รวมฮิต 3 หนุ่ม - รวมฮิต 3 หนุ่ม
DYEAR=2003
DGENRE=Country
TTITLE0=คนนอกสายตา
TTITLE1=กำลังใจ
TTITLE2=จดหมายฉบับสุดท้าย
TTITLE3=น้ำตาคนเลว
TTITLE4=หนุ่มราชภัฎ
TTITLE5=โปรดพิจารณา
TTITLE6=กลัว
TTITLE7=ในฝัน
TTITLE8=พี่ผิดอะไร
TTITLE9=ผู้ผิดหวัง
TTITLE10=ยังรักเสมอ
TTITLE11=จงเก็บใจรอ
TTITLE12=สั่งนาง
TTITLE13=ขายควายช่วยแม่
TTITLE14=เก็บไถขึ้นลาน
TTITLE15=จดหมายผิดซอง
EXTD=
EXTT0=
EXTT1=
EXTT2=
EXTT3=
EXTT4=
EXTT5=
EXTT6=
EXTT7=
EXTT8=
EXTT9=
EXTT10=
EXTT11=
EXTT12=
EXTT13=
EXTT14=
EXTT15=
PLAYORDER=
